<svg viewBox="0 0 460 460" fill="none" xmlns="http://www.w3.org/2000/svg">
<path d="M180.542 72.0417L253.661 159.365L364.737 134.183L304.282 230.709L362.556 328.566L252.073 300.898L177.013 386.56L169.186 272.935L64.522 228.019L170.167 185.462L180.542 72.0417Z" fill="#F0DB1B"/>
<path d="M93.4466 136.427L204.923 159.769L276.589 71.2472L288.838 184.481L395.173 225.284L291.266 271.925L285.319 385.664L208.852 301.256L98.8426 330.747L155.49 231.939L93.4466 136.427Z" fill="#F0DB1B"/>
<path d="M177.107 236.966L168.194 192.144C170.082 191.464 171.817 190.721 173.397 189.914C175.006 189.054 176.626 188.302 178.258 187.657C178.27 187.698 178.343 188.145 178.475 188.998C178.595 189.81 178.757 190.899 178.96 192.266C179.151 193.592 179.379 195.107 179.644 196.813C179.896 198.477 180.217 200.791 180.606 203.754C181.037 206.704 181.642 210.784 182.421 215.994L183.337 215.707C183.225 211.63 183.146 208.302 183.1 205.724C183.041 203.105 182.986 200.998 182.935 199.405C182.912 197.758 182.868 196.185 182.801 194.686C182.776 193.174 182.741 191.777 182.698 190.494C182.695 189.198 182.669 188.112 182.618 187.233L183.167 187.062C183.9 186.833 184.621 186.563 185.328 186.252C186.077 185.929 186.764 185.625 187.39 185.34C188.044 185.001 188.712 184.636 189.394 184.244C189.427 184.636 189.561 185.421 189.795 186.599C190.07 187.765 190.381 189.188 190.727 190.868C191.061 192.507 191.451 194.329 191.899 196.335C192.335 198.3 192.764 200.244 193.186 202.169C193.596 204.052 193.981 205.854 194.34 207.575C194.739 209.283 195.063 210.746 195.31 211.965L196.409 211.622L194.002 183.541C195.323 182.905 196.63 182.295 197.923 181.712C199.053 181.18 200.224 180.635 201.436 180.078C202.647 179.52 203.71 178.987 204.624 178.478C204.547 180.379 204.535 182.484 204.586 184.793C204.624 187.06 204.68 189.457 204.754 191.982C204.828 194.507 204.929 197.046 205.056 199.598C205.224 202.139 205.367 204.597 205.484 206.975C205.81 212.595 206.222 218.344 206.718 224.224L193.639 230.86L188.956 206.441L188.223 206.67L189.107 230.734L177.107 236.966ZM211.74 226.007C211.099 219.949 210.461 214.047 209.827 208.3C209.508 205.851 209.185 203.315 208.857 200.69C208.515 198.026 208.146 195.414 207.749 192.856C207.392 190.285 207.021 187.809 206.634 185.427C206.275 182.991 205.904 180.804 205.522 178.867C206.472 178.615 207.346 178.409 208.145 178.249C208.972 178.035 209.779 177.827 210.566 177.626C211.352 177.425 212.139 177.224 212.925 177.023C213.74 176.768 214.615 176.495 215.552 176.202C215.763 179.31 215.975 182.417 216.186 185.525C216.438 188.62 216.737 191.723 217.084 194.833L222.921 192.271C222.588 189.202 222.225 186.253 221.833 183.425C221.428 180.557 221.14 177.562 220.969 174.442C221.855 173.986 222.855 173.539 223.97 173.101C225.072 172.623 226.099 172.19 227.051 171.803C228.003 171.416 228.798 171.1 229.437 170.856C230.104 170.558 230.438 170.409 230.438 170.409C230.44 172.42 230.52 174.608 230.678 176.972C230.864 179.283 231.082 181.696 231.332 184.211C231.569 186.685 231.838 189.193 232.142 191.736C232.445 194.279 232.75 196.687 233.058 198.96C233.779 204.412 234.599 209.967 235.518 215.625L226.332 219.703C226.098 217.094 225.822 214.565 225.503 212.117C225.3 210.035 225.07 207.871 224.816 205.626C224.602 203.368 224.381 201.448 224.155 199.865L218.401 202.267C218.6 203.903 218.814 205.803 219.043 207.967C219.313 210.118 219.572 212.16 219.819 214.095C220.058 216.434 220.297 218.773 220.537 221.112L211.74 226.007ZM262.056 173.87C263.1 177.21 263.72 180.48 263.916 183.682C264.14 186.831 264.05 189.832 263.645 192.685C263.228 195.497 262.531 198.129 261.553 200.581C260.604 202.978 259.491 205.137 258.213 207.056C256.923 208.934 255.516 210.514 253.994 211.794C252.46 213.034 250.898 213.902 249.31 214.398C247.966 214.818 246.668 214.956 245.416 214.811C244.151 214.625 242.958 214.171 241.838 213.448C240.706 212.684 239.653 211.605 238.681 210.211C237.736 208.762 236.92 206.939 236.233 204.74C235.52 202.459 235.054 199.967 234.835 197.264C234.616 194.561 234.607 191.815 234.808 189.025C235.009 186.236 235.472 183.498 236.197 180.813C236.923 178.127 237.873 175.662 239.049 173.417C240.212 171.132 241.612 169.174 243.248 167.545C244.885 165.916 246.762 164.771 248.88 164.109C250.712 163.536 252.34 163.452 253.763 163.856C255.214 164.208 256.456 164.892 257.489 165.91C258.551 166.875 259.459 168.066 260.215 169.484C260.971 170.901 261.585 172.364 262.056 173.87ZM244.838 200.307C244.978 200.755 245.206 201.197 245.522 201.635C245.838 202.073 246.195 202.431 246.595 202.708C246.994 202.985 247.442 203.203 247.939 203.361C248.463 203.465 248.97 203.441 249.458 203.288C251.291 202.715 252.723 201.575 253.753 199.867C254.784 198.159 255.481 196.242 255.845 194.117C256.209 191.992 256.311 189.814 256.15 187.585C256.031 185.342 255.703 183.366 255.169 181.655C255.016 181.167 254.81 180.65 254.55 180.105C254.331 179.548 254.044 179.057 253.687 178.632C253.372 178.194 252.959 177.876 252.45 177.677C251.969 177.425 251.403 177.401 250.751 177.605C249.448 178.012 248.349 178.713 247.453 179.709C246.557 180.704 245.833 181.891 245.28 183.271C244.756 184.597 244.385 186.054 244.166 187.643C243.934 189.19 243.797 190.753 243.754 192.331C243.739 193.856 243.839 195.322 244.056 196.729C244.272 198.137 244.533 199.329 244.838 200.307ZM186.301 274.157C186.184 271.779 186.047 269.408 185.889 267.044C185.779 264.977 185.633 262.721 185.449 260.275C185.307 257.816 185.141 255.499 184.953 253.322C185.21 253.287 185.569 253.219 186.029 253.12C186.477 252.98 186.931 252.86 187.392 252.761C187.84 252.621 188.288 252.481 188.736 252.341C189.184 252.201 189.51 252.099 189.713 252.035C190.284 251.857 190.922 251.613 191.63 251.302C192.378 250.979 193.1 250.642 193.795 250.29C194.49 249.939 195.239 249.548 196.043 249.118L195.995 269.987L186.301 274.157ZM224.023 259.014C224.685 261.131 225.086 263.487 225.226 266.081C225.354 268.633 225.237 271.263 224.875 273.968C224.501 276.633 223.837 279.3 222.883 281.967C221.956 284.581 220.73 287.021 219.203 289.286C217.663 291.511 215.824 293.494 213.686 295.235C211.589 296.963 209.176 298.254 206.448 299.107C205.877 299.285 205.295 299.422 204.699 299.519C204.116 299.657 203.527 299.774 202.931 299.87C202.274 293.907 201.641 288.092 201.033 282.426C200.74 280.059 200.442 277.604 200.139 275.062C199.823 272.478 199.5 269.942 199.169 267.453C198.838 264.963 198.518 262.582 198.21 260.309C197.943 258.024 197.658 255.967 197.355 254.14C199.004 253.267 200.68 252.407 202.383 251.562C204.085 250.717 205.873 250.002 207.747 249.416C209.946 248.729 211.907 248.496 213.63 248.717C215.394 248.926 216.935 249.495 218.254 250.424C219.613 251.34 220.771 252.542 221.728 254.031C222.685 255.52 223.45 257.181 224.023 259.014ZM208.118 258.755C208.421 261.298 208.671 263.745 208.87 266.097C209.069 268.449 209.274 270.821 209.485 273.213C209.697 275.606 209.94 278.1 210.215 280.696C210.49 283.293 210.855 286.106 211.311 289.138C212.085 288.181 212.748 287.012 213.3 285.633C213.88 284.2 214.349 282.623 214.705 280.902C215.061 279.182 215.31 277.405 215.453 275.572C215.636 273.727 215.73 271.954 215.735 270.254C215.74 268.554 215.655 266.994 215.479 265.573C215.344 264.14 215.124 262.935 214.818 261.958C214.347 260.451 213.551 259.404 212.428 258.816C211.346 258.215 209.909 258.195 208.118 258.755ZM251.748 283.271C250.781 283.752 249.718 284.285 248.56 284.871C247.402 285.456 246.36 285.983 245.434 286.452C245.176 285.057 244.926 283.683 244.681 282.328C244.447 281.15 244.192 279.978 243.917 278.812C243.683 277.634 243.48 276.625 243.306 275.785L237.992 277.446L238.298 287.006C237.44 287.408 236.426 287.881 235.255 288.426C234.072 288.93 232.97 289.409 231.949 289.862C230.697 290.432 229.465 290.996 228.253 291.553C228.189 285.628 228.13 279.79 228.077 274.041C228.041 271.638 227.994 269.127 227.935 266.508C227.917 263.876 227.885 261.271 227.839 258.693C227.821 256.061 227.794 253.544 227.758 251.141C227.723 248.738 227.663 246.544 227.579 244.559C230.284 243.49 233.018 242.367 235.779 241.191C238.582 240.002 241.271 238.737 243.846 237.395C244.132 238.737 244.498 240.41 244.946 242.416C245.422 244.368 245.956 246.504 246.546 248.822C247.137 251.141 247.759 253.562 248.414 256.084C249.068 258.606 249.71 261.088 250.338 263.529C251.891 269.212 253.532 275.248 255.261 281.637C254.103 282.222 252.932 282.767 251.748 283.271ZM237.549 270.879C237.712 270.828 237.997 270.739 238.404 270.612C238.839 270.431 239.281 270.27 239.729 270.13C240.205 269.937 240.646 269.777 241.054 269.649C241.448 269.481 241.72 269.352 241.871 269.26C241.794 269.016 241.687 268.602 241.55 268.019C241.44 267.383 241.291 266.692 241.103 265.946C240.943 265.147 240.763 264.286 240.564 263.365C240.366 262.444 240.174 261.543 239.988 260.662C239.502 258.534 239.005 256.231 238.498 253.752L237.204 248.323L236.307 248.67L236.544 254.363L237.549 270.879ZM261.594 281.602C261.131 276.829 260.645 272.131 260.139 267.506C259.932 265.559 259.701 263.53 259.443 261.42C259.186 259.31 258.921 257.247 258.649 255.232C258.405 253.162 258.124 251.194 257.809 249.325C257.521 247.404 257.243 245.658 256.976 244.087C256.001 244.258 255.032 244.516 254.067 244.862C253.143 245.196 252.168 245.366 251.142 245.374C250.98 244.71 250.764 243.95 250.497 243.095C250.23 242.24 249.983 241.378 249.756 240.51C249.504 239.561 249.233 238.55 248.943 237.479C250.027 237.229 251.105 236.959 252.177 236.669C253.248 236.379 254.313 236.068 255.372 235.737C257.449 235.088 259.432 234.424 261.32 233.744C263.237 233.011 264.991 232.329 266.581 231.697C268.2 231.013 269.772 230.32 271.296 229.62L271.655 233.129C271.745 234.129 271.84 235.15 271.942 236.191C272.085 237.219 272.183 238.105 272.236 238.848C271.417 239.373 270.558 239.842 269.659 240.257C268.789 240.619 267.931 241.021 267.086 241.464C267.234 242.937 267.412 244.58 267.621 246.393C267.817 248.164 268.038 250.017 268.285 251.951C268.56 253.832 268.848 255.754 269.148 257.716C269.449 259.679 269.724 261.56 269.973 263.359C270.582 267.595 271.276 271.96 272.055 276.455L261.594 281.602ZM282.805 259.081C282.117 256.881 281.812 254.831 281.888 252.93C282.005 251.016 282.328 249.261 282.858 247.665C283.374 246.028 284.003 244.535 284.743 243.186C285.512 241.784 286.237 240.529 286.919 239.422C287.589 238.274 288.127 237.279 288.534 236.436C288.929 235.553 289.024 234.785 288.82 234.134C288.744 233.89 288.479 233.615 288.026 233.309C287.56 232.963 286.981 232.898 286.289 233.115C285.515 233.356 284.66 233.981 283.724 234.989C282.815 235.944 281.924 237.027 281.051 238.239C280.165 239.409 279.284 240.736 278.406 242.217L272.82 235.715C274.311 233.193 276.194 230.995 278.47 229.122C280.732 227.207 283.208 225.83 285.895 224.99C287.199 224.583 288.465 224.344 289.694 224.272C290.952 224.147 292.11 224.277 293.168 224.661C294.255 224.992 295.223 225.584 296.07 226.437C296.905 227.248 297.545 228.367 297.991 229.792C298.615 231.788 298.823 233.6 298.617 235.229C298.398 236.817 297.966 238.294 297.319 239.658C296.714 241.01 295.94 242.324 294.998 243.602C294.097 244.867 293.243 246.14 292.437 247.42C291.63 248.7 290.957 250.051 290.417 251.471C289.878 252.891 289.667 254.432 289.784 256.095L286.294 257.588L282.805 259.081ZM295.652 264.788C295.92 265.643 295.997 266.535 295.885 267.464C295.773 268.393 295.459 269.318 294.943 270.24C294.413 271.12 293.662 271.936 292.69 272.687C291.759 273.425 290.621 274.004 289.277 274.424C287.648 274.934 286.294 274.82 285.215 274.085C284.123 273.309 283.36 272.228 282.928 270.844C282.686 270.07 282.586 269.251 282.63 268.389C282.66 267.485 282.859 266.618 283.225 265.789C283.632 264.946 284.2 264.188 284.928 263.513C285.656 262.838 286.569 262.329 287.669 261.986C289.909 261.286 291.69 261.265 293.014 261.924C294.378 262.571 295.258 263.525 295.652 264.788Z" fill="#C40303"/>
</svg>
